# Blender 5.0.0
# www.blender.org
mtllib centerdodeca.mtl
o smstellateddodecahedron
v -8.333374 25.647264 35.300564
v -57.117523 41.498219 35.300564
v -26.967285 -0.000089 35.300568
v -26.967285 -0.000089 35.300568
v -57.117523 -41.498394 35.300571
v -8.333374 -25.647444 35.300571
v -8.333374 -25.647444 35.300571
v 21.816925 -67.145584 35.300571
v 21.816925 -15.851041 35.300568
v 21.816925 -15.851041 35.300568
v 70.600967 -0.000089 35.300568
v 21.816925 15.850863 35.300568
v 21.816925 15.850863 35.300568
v 21.816925 67.145416 35.300564
v -8.333374 25.647264 35.300564
v 21.816925 15.850863 35.300568
v 70.600967 -0.000089 35.300568
v 35.300522 25.647263 8.333364
v 35.300522 25.647263 8.333364
v 57.117470 41.498211 -35.300541
v 13.483566 41.498215 -8.333339
v 13.483566 41.498215 -8.333339
v -21.816986 67.145416 -35.300541
v -13.483627 41.498215 8.333364
v -13.483627 41.498215 8.333364
v -57.117523 41.498219 35.300564
v -8.333374 25.647264 35.300564
v -8.333374 25.647264 35.300564
v -0.000031 -0.000086 78.934517
v 21.816925 15.850863 35.300568
v -21.816986 -15.851047 -35.300537
v -21.816986 -67.145584 -35.300533
v -35.300583 -25.647446 -8.333334
v -35.300583 -25.647446 -8.333334
v -57.117523 -41.498394 35.300571
v -43.633926 -0.000091 8.333366
v -43.633926 -0.000091 8.333366
v -57.117523 41.498219 35.300564
v -35.300583 25.647263 -8.333338
v -35.300583 25.647263 -8.333338
v -21.816986 67.145416 -35.300541
v -21.816986 15.850858 -35.300537
v -21.816986 15.850858 -35.300537
v -0.000031 -0.000098 -78.934479
v -21.816986 -15.851047 -35.300537
v -8.333374 25.647264 35.300564
v 21.816925 67.145416 35.300564
v -13.483627 41.498215 8.333364
v -13.483627 41.498215 8.333364
v -21.816986 67.145416 -35.300541
v -35.300583 25.647263 -8.333338
v -35.300583 25.647263 -8.333338
v -70.601028 -0.000094 -35.300537
v -43.633926 -0.000091 8.333366
v -43.633926 -0.000091 8.333366
v -57.117523 -41.498394 35.300571
v -26.967285 -0.000089 35.300568
v -26.967285 -0.000089 35.300568
v -0.000031 -0.000086 78.934517
v -8.333374 25.647264 35.300564
v 8.333313 -25.647448 -35.300533
v 57.117470 -41.498402 -35.300533
v 13.483566 -41.498398 -8.333333
v 13.483566 -41.498398 -8.333333
v 21.816925 -67.145584 35.300571
v -13.483627 -41.498398 8.333369
v -13.483627 -41.498398 8.333369
v -57.117523 -41.498394 35.300571
v -35.300583 -25.647446 -8.333334
v -35.300583 -25.647446 -8.333334
v -70.601028 -0.000094 -35.300537
v -21.816986 -15.851047 -35.300537
v -21.816986 -15.851047 -35.300537
v -0.000031 -0.000098 -78.934479
v 8.333313 -25.647448 -35.300533
v -26.967285 -0.000089 35.300568
v -57.117523 41.498219 35.300564
v -43.633926 -0.000091 8.333366
v -43.633926 -0.000091 8.333366
v -70.601028 -0.000094 -35.300537
v -35.300583 -25.647446 -8.333334
v -35.300583 -25.647446 -8.333334
v -21.816986 -67.145584 -35.300533
v -13.483627 -41.498398 8.333369
v -13.483627 -41.498398 8.333369
v 21.816925 -67.145584 35.300571
v -8.333374 -25.647444 35.300571
v -8.333374 -25.647444 35.300571
v -0.000031 -0.000086 78.934517
v -26.967285 -0.000089 35.300568
v 26.967216 -0.000094 -35.300537
v 57.117470 41.498211 -35.300541
v 43.633873 -0.000092 -8.333336
v 43.633873 -0.000092 -8.333336
v 70.600967 -0.000089 35.300568
v 35.300522 -25.647446 8.333368
v 35.300522 -25.647446 8.333368
v 21.816925 -67.145584 35.300571
v 13.483566 -41.498398 -8.333333
v 13.483566 -41.498398 -8.333333
v -21.816986 -67.145584 -35.300533
v 8.333313 -25.647448 -35.300533
v 8.333313 -25.647448 -35.300533
v -0.000031 -0.000098 -78.934479
v 26.967216 -0.000094 -35.300537
v -8.333374 -25.647444 35.300571
v -57.117523 -41.498394 35.300571
v -13.483627 -41.498398 8.333369
v -13.483627 -41.498398 8.333369
v -21.816986 -67.145584 -35.300533
v 13.483566 -41.498398 -8.333333
v 13.483566 -41.498398 -8.333333
v 57.117470 -41.498402 -35.300533
v 35.300522 -25.647446 8.333368
v 35.300522 -25.647446 8.333368
v 70.600967 -0.000089 35.300568
v 21.816925 -15.851041 35.300568
v 21.816925 -15.851041 35.300568
v -0.000031 -0.000086 78.934517
v -8.333374 -25.647444 35.300571
v 8.333313 25.647261 -35.300541
v -21.816986 67.145416 -35.300541
v 13.483566 41.498215 -8.333339
v 13.483566 41.498215 -8.333339
v 21.816925 67.145416 35.300564
v 35.300522 25.647263 8.333364
v 35.300522 25.647263 8.333364
v 70.600967 -0.000089 35.300568
v 43.633873 -0.000092 -8.333336
v 43.633873 -0.000092 -8.333336
v 57.117470 -41.498402 -35.300533
v 26.967216 -0.000094 -35.300537
v 26.967216 -0.000094 -35.300537
v -0.000031 -0.000098 -78.934479
v 8.333313 25.647261 -35.300541
v 21.816925 -15.851041 35.300568
v 21.816925 -67.145584 35.300571
v 35.300522 -25.647446 8.333368
v 35.300522 -25.647446 8.333368
v 57.117470 -41.498402 -35.300533
v 43.633873 -0.000092 -8.333336
v 43.633873 -0.000092 -8.333336
v 57.117470 41.498211 -35.300541
v 35.300522 25.647263 8.333364
v 35.300522 25.647263 8.333364
v 21.816925 67.145416 35.300564
v 21.816925 15.850863 35.300568
v 21.816925 15.850863 35.300568
v -0.000031 -0.000086 78.934517
v 21.816925 -15.851041 35.300568
v -21.816986 15.850858 -35.300537
v -70.601028 -0.000094 -35.300537
v -35.300583 25.647263 -8.333338
v -35.300583 25.647263 -8.333338
v -57.117523 41.498219 35.300564
v -13.483627 41.498215 8.333364
v -13.483627 41.498215 8.333364
v 21.816925 67.145416 35.300564
v 13.483566 41.498215 -8.333339
v 13.483566 41.498215 -8.333339
v 57.117470 41.498211 -35.300541
v 8.333313 25.647261 -35.300541
v 8.333313 25.647261 -35.300541
v -0.000031 -0.000098 -78.934479
v -21.816986 15.850858 -35.300537
v 26.967216 -0.000094 -35.300537
v 57.117470 -41.498402 -35.300533
v 8.333313 -25.647448 -35.300533
v 8.333313 -25.647448 -35.300533
v -21.816986 -67.145584 -35.300533
v -21.816986 -15.851047 -35.300537
v -21.816986 -15.851047 -35.300537
v -70.601028 -0.000094 -35.300537
v -21.816986 15.850858 -35.300537
v -21.816986 15.850858 -35.300537
v -21.816986 67.145416 -35.300541
v 8.333313 25.647261 -35.300541
v 8.333313 25.647261 -35.300541
v 57.117470 41.498211 -35.300541
v 26.967216 -0.000094 -35.300537
vn -0.0000 -0.0000 1.0000
vn 0.2764 0.8507 0.4472
vn -0.8944 -0.0000 -0.4472
vn -0.7236 0.5257 0.4472
vn -0.2764 -0.8507 -0.4472
vn -0.7236 -0.5257 0.4472
vn 0.7236 -0.5257 -0.4472
vn 0.2764 -0.8507 0.4472
vn 0.7236 0.5257 -0.4472
vn 0.8944 -0.0000 0.4472
vn -0.2764 0.8507 -0.4472
vn -0.0000 -0.0000 -1.0000
s 0
f 1//1 2//1 3//1
f 4//1 5//1 6//1
f 7//1 8//1 9//1
f 10//1 11//1 12//1
f 13//1 14//1 15//1
f 16//2 17//2 18//2
f 19//2 20//2 21//2
f 22//2 23//2 24//2
f 25//2 26//2 27//2
f 28//2 29//2 30//2
f 31//3 32//3 33//3
f 34//3 35//3 36//3
f 37//3 38//3 39//3
f 40//3 41//3 42//3
f 43//3 44//3 45//3
f 46//4 47//4 48//4
f 49//4 50//4 51//4
f 52//4 53//4 54//4
f 55//4 56//4 57//4
f 58//4 59//4 60//4
f 61//5 62//5 63//5
f 64//5 65//5 66//5
f 67//5 68//5 69//5
f 70//5 71//5 72//5
f 73//5 74//5 75//5
f 76//6 77//6 78//6
f 79//6 80//6 81//6
f 82//6 83//6 84//6
f 85//6 86//6 87//6
f 88//6 89//6 90//6
f 91//7 92//7 93//7
f 94//7 95//7 96//7
f 97//7 98//7 99//7
f 100//7 101//7 102//7
f 103//7 104//7 105//7
f 106//8 107//8 108//8
f 109//8 110//8 111//8
f 112//8 113//8 114//8
f 115//8 116//8 117//8
f 118//8 119//8 120//8
f 121//9 122//9 123//9
f 124//9 125//9 126//9
f 127//9 128//9 129//9
f 130//9 131//9 132//9
f 133//9 134//9 135//9
f 136//10 137//10 138//10
f 139//10 140//10 141//10
f 142//10 143//10 144//10
f 145//10 146//10 147//10
f 148//10 149//10 150//10
f 151//11 152//11 153//11
f 154//11 155//11 156//11
f 157//11 158//11 159//11
f 160//11 161//11 162//11
f 163//11 164//11 165//11
f 166//12 167//12 168//12
f 169//12 170//12 171//12
f 172//12 173//12 174//12
f 175//12 176//12 177//12
f 178//12 179//12 180//12
